<?xml version="1.0" encoding="UTF-8"?>
<svg xmlns="http://www.w3.org/2000/svg" id="outline" viewBox="0 0 512 512" width="512" height="512"><path d="M216,496H320a7.99977,7.99977,0,0,0,8-8,50.64142,50.64142,0,0,0-24.46338-43.20752l-13.31055-7.98633a55.01154,55.01154,0,0,0-12.56933-58.46289,7.99774,7.99774,0,0,0-10.09425-.99951l-66.543,44.36182-14.21-14.20948a64.14534,64.14534,0,0,1-10.481-76.98816l34.67389,27.73914a7.99977,7.99977,0,0,0,12.42529-3.27588l5.2876-13.21875a62.814,62.814,0,0,0-1.7027-50.53137L295,252.69482c.63751-.36132,1.2652-.73584,1.90045-1.10009a74.15655,74.15655,0,0,0,27.08978,46.64257l11.76807,9.41456A19.8452,19.8452,0,0,0,368,292.15479V241.88867a36.69778,36.69778,0,0,0-14.40845-29.26855A417.46448,417.46448,0,0,0,463.15527,75.57764a7.9993,7.9993,0,0,0-1.49853-9.23438l-8-8A7.99877,7.99877,0,0,0,448,56H435.31348l10.34326-10.34326A7.99877,7.99877,0,0,0,448,40V24a7.99977,7.99977,0,0,0-8-8H359.99951a315.65868,315.65868,0,0,0-55.11767,4.83643l-.19239-.08545-.05871.13208A308.39918,308.39918,0,0,0,184.95715,69.64368l-33.2716-33.27161a22.18177,22.18177,0,0,0-31.3711,0A182.68784,182.68784,0,0,0,71.79987,208.0553,311.50062,311.50062,0,0,0,48,328C48,420.63574,123.36426,496,216,496Zm54.5293-101.40479a39.01718,39.01718,0,0,1,3.88226,38.55555l-12.352,3.088,3.88086,15.52246,12.78522-3.19629,16.579,9.94727A34.58432,34.58432,0,0,1,311.04443,480H224v-9.37256a62.155,62.155,0,0,0-12.06714-36.968Zm-56.66944-58.78515-1.28271,3.20654L185.873,317.65332a63.99932,63.99932,0,0,1,14.68609-11.44189l12.47968-7.07178A46.80954,46.80954,0,0,1,213.85986,335.81006ZM352,241.88867v50.26612a3.84489,3.84489,0,0,1-6.24707,3.00244l-11.76758-9.41407a58.25618,58.25618,0,0,1-21.91644-43.27783q14.70173-9.26934,28.52167-19.64648l-.16822.33642A20.831,20.831,0,0,1,352,241.88867ZM432,32v4.68652L410.34326,58.34326A7.99981,7.99981,0,0,0,416,72h28.68652l1.54932,1.54932A403.26724,403.26724,0,0,1,399.845,144H352.606a55.3589,55.3589,0,0,1-50.58789-77.84277l13.728-30.88806A300.15048,300.15048,0,0,1,359.99951,32ZM287.397,59.65918a70.73425,70.73425,0,0,0-4.58557,14.24023l-68.08826,52.61377,9.78321,12.66016L281.5874,95.06519A71.23156,71.23156,0,0,0,352.606,160h33.38488a402.34385,402.34385,0,0,1-98.87854,78.7749l-94.44091,53.5166a80.2201,80.2201,0,0,0-17.1753,126.51807l18.84717,18.84717a46.91166,46.91166,0,0,1,7.1864,9.24634,95.74753,95.74753,0,0,1-70.72009-50.60035l-14.18848,7.39454a111.69548,111.69548,0,0,0,90.86573,59.97363A47.28482,47.28482,0,0,1,208,470.62744v9.16235c-80.10883-4.17443-144-70.66027-144-151.79028A296.22019,296.22019,0,0,1,296.68317,38.76514ZM88.833,121.09424a167.08562,167.08562,0,0,1,42.79492-73.40869,6.18287,6.18287,0,0,1,8.74414,0l31.42658,31.42651q-7.16529,5.44154-14.05616,11.3169l-24.08575-24.0857L122.34326,77.65674,145.82349,101.137q-3.25378,3.07617-6.44068,6.24585-3.17944,3.17945-6.24585,6.44068L117.65674,98.34326l-11.31348,11.31348,16.08582,16.08581q-5.88053,6.88478-11.3169,14.05616l-9.45544-9.45545L90.34326,141.65674l11.30048,11.30054A309.61044,309.61044,0,0,0,83.697,182.79541,167.078,167.078,0,0,1,88.833,121.09424Z"/><path d="M360,88a24,24,0,1,0-24-24A24.02687,24.02687,0,0,0,360,88Zm0-32a8,8,0,1,1-8,8A8.00917,8.00917,0,0,1,360,56Z"/><path d="M188.73389,207.5a25.4568,25.4568,0,0,0,22.24463,17.36816l40.72607,3.13282q2.13209.16406,4.25879.16308A55.99644,55.99644,0,0,0,312,172.166V168H296v4.166a39.99952,39.99952,0,0,1-43.06787,39.88183L235.051,210.67236,252.84814,198.625l-8.96875-13.25-34.028,23.03442a9.4914,9.4914,0,0,1-2.02228-16.99975l76.46582-48.66016-8.58984-13.499-76.46582,48.66015A25.47373,25.47373,0,0,0,188.73389,207.5Z"/><rect x="258.95533" y="171.99992" width="14.27122" height="16.00017" transform="translate(-55.16344 180.10586) rotate(-34.09568)"/><path d="M144.9707,299.71582A68.73775,68.73775,0,0,1,104,319.5459V296a8.00917,8.00917,0,0,1,8-8h32V272H132.1983a269.52628,269.52628,0,0,1,18.8769-45.50146l-14.15137-7.46583A285.548,285.548,0,0,0,115.478,272H112a24.02687,24.02687,0,0,0-24,24v32a7.99977,7.99977,0,0,0,8,8q4.28037,0,8.48865-.415C104.17389,341.05518,104,346.54785,104,352a111.92314,111.92314,0,0,0,5.40332,34.45947l15.22559-4.91894A95.92972,95.92972,0,0,1,120,352c0-6.52222.25513-13.10461.7309-19.626a84.82476,84.82476,0,0,0,35.55328-21.34472l1.37256-1.37256-11.31348-11.31348Z"/><path d="M145.543,203.84082l13.668,8.31836c3.21094-5.27588,6.64551-10.50342,10.208-15.53809l-13.06055-9.24218C152.584,192.71289,148.94482,198.25146,145.543,203.84082Z"/><path d="M211.36572,150.00781l-10.56445-12.0166c-5.94189,5.22363-11.73486,10.7627-17.21826,16.46289l11.53125,11.0918C200.28955,160.166,205.75732,154.938,211.36572,150.00781Z"/><rect x="231.75379" y="441.99988" width="16.49242" height="16.00025" transform="translate(-101.98083 71.64949) rotate(-14.03709)"/></svg>
