<svg xmlns="http://www.w3.org/2000/svg" xmlns:xlink="http://www.w3.org/1999/xlink" xmlns:fi="http://pattern.flaticon.com/" x="0" y="0" width="700" height="350" viewBox="0 0 700 350"><rect x="0px" y="0px" width="100%" height="100%" opacity="1" fill="#ffffff"/><defs><g transform="matrix(0.8108108043670654 0 0 0.8108108043670654 171 283.0000005443676)" id="L1_62"><path d="m31.031 46.255c-10.9 0-21.061-2.818-26.826-6.106a1 1 0 0 1 .259-1.84c1.056-.257 2.058-.446 2.941-.584a21.06 21.06 0 0 1 -2.677-2.463 1 1 0 0 1 .107-1.462c4.367-3.5 12.62-7.468 27.088-6.547 9.1.424 17.544 3.6 24.355 6.186l3.772-.039a1.075 1.075 0 0 1 .8.381 1 1 0 0 1 .184.864l-1.52 6.02a1 1 0 0 1 -.97.755h-5.044a50.743 50.743 0 0 1 -22.469 4.835zm-23.287-6.555c10.381 4.67 29.875 7.474 45.066-.171a1.007 1.007 0 0 1 .45-.107h4.5l1.012-4.007-2.663.027a1.154 1.154 0 0 1 -.364-.065c-6.709-2.545-15.058-5.712-23.933-6.126-12.912-.823-20.558 2.354-24.848 5.442a9.543 9.543 0 0 0 4.045 2.691 1 1 0 0 1 -.176 1.975c-.018.001-1.287.059-3.089.341z" fill="#79bd8f"/><path d="m34.7 52.058.923-.385-.927.376a7.082 7.082 0 0 1 -.2-5.185 5.517 5.517 0 0 1 3.273-2.964 1 1 0 0 1 .729 1.862 3.557 3.557 0 0 0 -2.153 1.882 5.164 5.164 0 0 0 .2 3.633z" fill="#79bd8f"/><path d="m35.628 52.683a.981.981 0 0 1 -.47-.12 12.613 12.613 0 0 1 -6.845-6.952 1 1 0 1 1 1.841-.78 10.645 10.645 0 0 0 5.84 5.913.993.993 0 0 1 .338.222 1 1 0 0 1 -.7 1.717z" fill="#79bd8f"/><path d="m51.832 47.333c-6.079 0-6.877-3.71-6.908-3.869a1 1 0 0 1 1.959-.4c.028.111.483 1.718 3.367 2.16a4.941 4.941 0 0 1 .718-4.7 1 1 0 1 1 1.558 1.254c-1.34 1.667.132 4 .147 4.021a1 1 0 0 1 -.841 1.541z" fill="#79bd8f"/><path d="m40.569 30.447a1.018 1.018 0 0 1 -.218-.024 1 1 0 0 1 -.759-1.193 4.3 4.3 0 0 1 1.553-2.5l-3.245-3.23a10.411 10.411 0 0 0 -5.115 5.109 1 1 0 0 1 -1.87-.71 12.256 12.256 0 0 1 6.855-6.514 1 1 0 0 1 1.067.224l4.652 4.642a1 1 0 0 1 -.439 1.671 2.381 2.381 0 0 0 -1.51 1.745 1 1 0 0 1 -.971.78z" fill="#79bd8f"/><circle cx="12" cy="35" r="1" fill="#79bd8f"/><path d="m12.4 36.7a1.693 1.693 0 1 1 1.694-1.7 1.7 1.7 0 0 1 -1.694 1.7zm0-2.386a.693.693 0 1 0 .693.692.694.694 0 0 0 -.693-.696z" fill="#79bd8f"/><path d="m23.152 41.049a1 1 0 0 1 -.786-.382l-3.025-3.841a1 1 0 0 1 .02-1.263c.246-.292 2.612-2.808 9.931-1.231a1 1 0 0 1 .788 1.041c-.013.186-.366 4.556-6.758 5.661a.976.976 0 0 1 -.17.015zm-1.577-4.618 1.984 2.518c2.764-.621 3.844-1.972 4.263-2.865-3.432-.584-5.334-.084-6.247.347z" fill="#79bd8f"/><path d="m24 42.127a1 1 0 0 1 -.786-.381l-4.725-6a1 1 0 0 1 1.572-1.238l4.724 6a1 1 0 0 1 -.785 1.619z" fill="#79bd8f"/><path d="m67.589 46.475c-4.151 0-9.127-4.727-9.75-5.335a1 1 0 0 1 1.4-1.432c1.561 1.522 6.621 5.636 9.292 4.607.507-.194.633-.427.684-.586.088-.276.164-1.118-1.049-2.958a5.962 5.962 0 0 1 1.232-8c.558-.429.6-.594.605-.612-.349-.908-.831-1.112-1.164-1.191-2.037-.476-6.049 2.3-8.1 4.17a1 1 0 1 1 -1.345-1.481c.625-.566 6.2-5.514 9.907-4.635a3.579 3.579 0 0 1 2.556 2.365c.605 1.556-.733 2.584-1.237 2.97a3.956 3.956 0 0 0 -.78 5.313c1.242 1.883 1.673 3.455 1.283 4.671a2.932 2.932 0 0 1 -1.871 1.842 4.6 4.6 0 0 1 -1.663.292z" fill="#79bd8f"/></g><g transform="matrix(1.3734439378365428 0.3592084033257246 -0.3592084033257246 1.3734439378365428 165.74767450169622 33.25233232443695)" id="L1_63"><path d="m28.9 52.332c-17.928.001-28.847-14.984-28.964-15.147a1 1 0 0 1 -.157-.819c2.821-11.512 16.477-14.655 17.057-14.783 19.983-6 30.518 5.1 35.016 9.833a19.242 19.242 0 0 0 1.921 1.877c2.318 1.686 3.977.492 4.363.157 5.351-8.155 13.249-4.14 13.328-4.1a1 1 0 0 1 .353 1.461c-3.525 5.006-4.49 10.988-2.95 18.288a1 1 0 0 1 -1.152 1.191c-5.152-.906-8.532-3.416-10.333-7.671a1.651 1.651 0 0 0 -2.221-1.163 3.959 3.959 0 0 0 -1.709 1.058 34.345 34.345 0 0 1 -20.313 9.54 32.956 32.956 0 0 1 -4.239.278zm-27.059-15.946c1.9 2.419 13.426 15.977 31.04 13.686a32.4 32.4 0 0 0 19.163-8.972 5.925 5.925 0 0 1 2.586-1.567 3.616 3.616 0 0 1 4.594 2.313c.883 2.088 2.6 4.905 7.4 6.168-1.117-6.64-.155-12.448 2.862-17.3-1.992-.626-6.407-1.237-9.741 3.934a1.045 1.045 0 0 1 -.133.165 5.315 5.315 0 0 1 -7.017.1 19.1 19.1 0 0 1 -2.195-2.121c-4.6-4.848-14.184-14.939-33.061-9.275-.197.046-12.709 2.943-15.498 12.869z" fill="#beeb9f"/><path d="m67.889 50.308a1 1 0 0 1 -.794-.392c-3.212-4.19-4.518-8.073-3.884-11.54.615-3.359 3.059-6.383 7.262-8.989a1 1 0 1 1 1.054 1.7c-3.7 2.295-5.839 4.869-6.348 7.649-.529 2.889.65 6.241 3.5 9.963a1 1 0 0 1 -.793 1.609z" fill="#beeb9f"/><path d="m48.861 30.791a1 1 0 0 1 -.766-1.642c.486-.581.413-1.807-.19-3.2-1.014-2.338-3.106-4.312-4.663-4.4a14.141 14.141 0 0 1 -4.669-1.361 32.865 32.865 0 0 0 -10.332-2.708c-7.734-.8-8.592 4.551-8.625 4.779a1 1 0 1 1 -1.979-.283c.01-.075 1.185-7.48 10.809-6.485a35.022 35.022 0 0 1 10.894 2.852 12.591 12.591 0 0 0 4.014 1.21c2.664.15 5.229 2.932 6.386 5.6.934 2.153.893 4.076-.111 5.278a1 1 0 0 1 -.768.36z" fill="#beeb9f"/><path d="m36.106 54.438a28.44 28.44 0 0 1 -10.894-2.384 1 1 0 0 1 .846-1.812c.086.04 8.624 3.946 15.714 1.216a13.568 13.568 0 0 0 7.6-7.856 1 1 0 0 1 1.842.779c-1.873 4.43-4.813 7.44-8.738 8.948a17.75 17.75 0 0 1 -6.37 1.109z" fill="#beeb9f"/><path d="m24.326 58.6c-.092 0-.188 0-.287-.009-6.064-.4-9.537-9.573-9.682-9.964a1 1 0 1 1 1.875-.7c.862 2.321 3.966 8.4 7.935 8.663a1.021 1.021 0 0 0 .585-.063c.121-.233-.062-1.713-2.56-5.163a1 1 0 0 1 1.62-1.173c3.415 4.717 3.165 6.433 2.68 7.315a2.253 2.253 0 0 1 -2.166 1.094z" fill="#beeb9f"/><path d="m9.612 44.994a1 1 0 0 1 -.434-1.907c2.893-1.768 4.669-3.988 5.28-6.6 1.019-4.359-1.391-9.025-2.918-11.419a1 1 0 0 1 1.685-1.076c2.073 3.248 4.307 8.131 3.18 12.95-.744 3.182-2.856 5.842-6.276 7.908a1 1 0 0 1 -.517.144z" fill="#beeb9f"/><circle cx="9" cy="32" r="1" fill="#beeb9f"/><path d="m9.228 34.654a1.968 1.968 0 1 1 1.972-1.968 1.97 1.97 0 0 1 -1.972 1.968zm0-2.936a.968.968 0 1 0 .968.968.969.969 0 0 0 -.968-.968z" fill="#beeb9f"/><path d="m26.384 45.15c-2.647 0-5.671-4.476-6.615-5.987a1 1 0 0 1 .121-1.217 1.431 1.431 0 0 0 .5-1.635 1 1 0 0 1 .334-.994c.786-.656 7.8-6.364 11.557-4.826a2.256 2.256 0 0 1 1.4 1.631c.563 2.577-3.265 7.166-4.811 8.89a3.383 3.383 0 0 1 .13 2.088 2.954 2.954 0 0 1 -1.667 1.836 2.186 2.186 0 0 1 -.949.214zm-4.53-6.45c1.755 2.619 3.948 4.743 4.615 4.428.5-.241.583-.5.609-.588a1.8 1.8 0 0 0 -.241-1.2 1.01 1.01 0 0 1 .123-1.2c2.507-2.685 5.045-6.352 4.773-7.595-.016-.07-.03-.135-.205-.207-1.8-.741-6.23 1.883-9.079 4.152a3.07 3.07 0 0 1 -.595 2.21z" fill="#beeb9f"/></g><g transform="matrix(1.1007983684539795 0 0 1.1007983684539795 260.2704601287842 179.44256606116517)" id="L1_64"><path d="m37 69.389c-12.4 0-21.665-10.511-21.665-19.909 0-7.645 3.2-12.888 9.5-15.582a1 1 0 0 1 .786 1.839c-5.579 2.384-8.29 6.879-8.29 13.743 0 8.282 8.59 17.909 19.665 17.909s19.669-9.627 19.669-17.909c0-6.864-2.711-11.359-8.29-13.743a1 1 0 0 1 .786-1.839c6.306 2.694 9.5 7.937 9.5 15.582.004 9.398-9.261 19.909-21.661 19.909z" fill="#ff6138"/><path d="m42.672 34.18a1.02 1.02 0 0 1 -.145-.01 41.577 41.577 0 0 0 -11.054 0 1.018 1.018 0 0 1 -1.155-.99.99.99 0 0 1 .928-1 43.641 43.641 0 0 1 11.568.008 1 1 0 0 1 -.142 1.99z" fill="#ff6138"/><path d="m28.251 38.1a4.164 4.164 0 1 1 4.164-4.163 4.168 4.168 0 0 1 -4.164 4.163zm0-6.327a2.164 2.164 0 1 0 2.164 2.164 2.166 2.166 0 0 0 -2.164-2.169z" fill="#ff6138"/><path d="m45.749 38.1a4.164 4.164 0 1 1 4.163-4.163 4.169 4.169 0 0 1 -4.163 4.163zm0-6.327a2.164 2.164 0 1 0 2.163 2.164 2.167 2.167 0 0 0 -2.163-2.169z" fill="#ff6138"/><path d="m9.478 59.733a1 1 0 0 1 -.909-1.418 12.023 12.023 0 0 1 7.848-6.689 1 1 0 1 1 .547 1.924 10.071 10.071 0 0 0 -6.577 5.6 1 1 0 0 1 -.909.583z" fill="#ff6138"/><path d="m13.06 64.5a.988.988 0 0 1 -.415-.091 1 1 0 0 1 -.494-1.325 11.833 11.833 0 0 1 6.231-6.125 1 1 0 0 1 .793 1.836 9.889 9.889 0 0 0 -5.2 5.121 1 1 0 0 1 -.915.584z" fill="#ff6138"/><path d="m16.334 69.389a1 1 0 0 1 -.909-1.415 11.923 11.923 0 0 1 6.8-6.358 1 1 0 0 1 .7 1.874 9.83 9.83 0 0 0 -5.679 5.315 1 1 0 0 1 -.912.584z" fill="#ff6138"/><path d="m64.522 59.757a1 1 0 0 1 -.911-.587 9.986 9.986 0 0 0 -6.573-5.62 1 1 0 0 1 .542-1.925 11.933 11.933 0 0 1 7.853 6.719 1 1 0 0 1 -.5 1.323.978.978 0 0 1 -.411.09z" fill="#ff6138"/><path d="m60.94 64.5a1 1 0 0 1 -.91-.584 9.889 9.889 0 0 0 -5.2-5.121 1 1 0 0 1 .793-1.836 11.833 11.833 0 0 1 6.231 6.125 1 1 0 0 1 -.494 1.325.988.988 0 0 1 -.42.091z" fill="#ff6138"/><path d="m57.666 69.389a1 1 0 0 1 -.911-.584 9.83 9.83 0 0 0 -5.679-5.315 1 1 0 1 1 .7-1.874 11.923 11.923 0 0 1 6.8 6.358 1 1 0 0 1 -.909 1.415z" fill="#ff6138"/><path d="m17.046 44.928a1 1 0 0 1 -.616-.213l-11.27-8.826a1 1 0 1 1 1.234-1.574l11.269 8.826a1 1 0 0 1 -.617 1.787z" fill="#ff6138"/><path d="m19.941 39.519a1 1 0 0 1 -.774-.367l-5.338-6.525a1 1 0 0 1 1.548-1.267l5.338 6.525a1 1 0 0 1 -.774 1.634z" fill="#ff6138"/><path d="m5.776 36.1a1 1 0 0 1 -.873-.513c-10.2-18.282 9.808-30.71 10.011-30.833a1 1 0 0 1 1.386 1.362c-2.89 4.939-5.714 11.106-2.679 15.873a28.59 28.59 0 0 0 3.879-8.181 1 1 0 0 1 1.563-.554c.127.094 3.1 2.358 2.7 7.639a16.2 16.2 0 0 1 -6.56 11.9 14.92 14.92 0 0 1 -6.203 2.7l-3.032.59a.962.962 0 0 1 -.192.017zm6.655-27c-4.84 4.2-12.248 13.121-6.123 24.88l2.311-.45a12.881 12.881 0 0 0 5.325-2.292 14.286 14.286 0 0 0 5.83-10.493 7.95 7.95 0 0 0 -.9-4.646 27.482 27.482 0 0 1 -4.548 8.193 1.062 1.062 0 0 1 -.756.327 1 1 0 0 1 -.745-.351c-4.06-4.759-2.391-10.851-.394-15.163z" fill="#ff6138"/><path d="m56.954 44.928a1 1 0 0 1 -.617-1.787l11.269-8.826a1 1 0 0 1 1.234 1.574l-11.27 8.826a1 1 0 0 1 -.616.213z" fill="#ff6138"/><path d="m54.059 39.519a1 1 0 0 1 -.774-1.634l5.338-6.525a1 1 0 0 1 1.548 1.267l-5.338 6.525a1 1 0 0 1 -.774.367z" fill="#ff6138"/><path d="m68.224 36.1a.962.962 0 0 1 -.192-.019l-3.032-.588a14.843 14.843 0 0 1 -6.145-2.656 16.245 16.245 0 0 1 -6.624-11.943c-.392-5.281 2.577-7.545 2.7-7.639a1 1 0 0 1 1.563.554 28.59 28.59 0 0 0 3.885 8.181c3.035-4.767.211-10.934-2.679-15.873a1 1 0 0 1 1.382-1.36c.2.123 20.208 12.551 10.011 30.833a1 1 0 0 1 -.869.51zm-14-15.357a14.25 14.25 0 0 0 5.776 10.457 12.939 12.939 0 0 0 5.378 2.332l2.311.45c6.128-11.761-1.28-20.682-6.12-24.877 2 4.312 3.666 10.4-.39 15.163a1 1 0 0 1 -.745.351 1.025 1.025 0 0 1 -.756-.327 27.524 27.524 0 0 1 -4.549-8.192 7.967 7.967 0 0 0 -.9 4.647z" fill="#ff6138"/></g><g transform="matrix(1.302694702782956 0.628887084981044 -0.628887084981044 1.302694702782956 -7.490453249646844 15.484650485642838)" id="L1_65"><path d="m44.02 55.719c-9.587 0-21.783-8.777-27.479-13.964l-.327-.3v-7.786l.327-.3c5.7-5.186 17.891-13.964 27.479-13.964 9.728 0 17.426 7.138 23.046 12.35l.681.63a7.065 7.065 0 0 1 0 10.351l-.681.63c-5.62 5.215-13.318 12.353-23.046 12.353zm-25.806-15.147c5.61 5.028 17.005 13.147 25.806 13.147 8.943 0 16.309-6.83 21.687-11.817l.682-.632a5.063 5.063 0 0 0 0-7.413l-.682-.632c-5.378-4.987-12.744-11.817-21.687-11.817-8.8 0-20.2 8.125-25.806 13.148z" fill="#00a388"/><path d="m6.308 48.923a10.2 10.2 0 0 1 -1.281-.081 4.259 4.259 0 0 1 -3.327-2.606 21.356 21.356 0 0 1 -1.7-8.694 21.289 21.289 0 0 1 1.7-8.651 4.259 4.259 0 0 1 3.324-2.606c7.558-.964 12.806 6.944 13.025 7.281l.162.248v7.5l-.162.249c-.203.316-4.874 7.36-11.741 7.36zm-.029-20.717a7.727 7.727 0 0 0 -1 .064 2.253 2.253 0 0 0 -1.736 1.4 19.349 19.349 0 0 0 -1.537 7.871 19.421 19.421 0 0 0 1.537 7.914 2.256 2.256 0 0 0 1.736 1.4c5.656.717 10.05-4.925 10.934-6.155v-6.275c-.83-1.157-4.764-6.219-9.934-6.219z" fill="#00a388"/><path d="m58.905 49.62a15.27 15.27 0 0 1 -8.77-13.772 15 15 0 0 1 5.975-12.057l1.208 1.593a13.014 13.014 0 0 0 -5.183 10.464 13.261 13.261 0 0 0 7.617 11.961z" fill="#00a388"/><circle cx="59" cy="34" r="1" fill="#00a388"/><path d="m59.329 37.151a2.292 2.292 0 1 1 2.292-2.292 2.294 2.294 0 0 1 -2.292 2.292zm0-3.584a1.292 1.292 0 1 0 1.292 1.292 1.294 1.294 0 0 0 -1.292-1.292z" fill="#00a388"/><path d="m49.482 54.375c-3.508-3.836-5.6-10.463-5.6-17.725 0-6.284 1.585-12.164 4.349-16.132l1.641 1.144c-2.536 3.64-3.99 9.1-3.99 14.988 0 6.675 1.946 12.95 5.078 16.375z" fill="#00a388"/><path d="m44.314 55.463c-4.147-3.509-6.724-10.718-6.724-18.813 0-6.611 1.813-12.9 4.849-16.822l1.582 1.224c-2.775 3.584-4.431 9.415-4.431 15.6 0 7.409 2.361 14.194 6.016 17.287z" fill="#00a388"/><path d="m38.215 54.689c-3.697-3.789-5.905-10.529-5.905-18.039 0-5.893 1.427-11.532 3.914-15.474l1.692 1.068c-2.292 3.63-3.606 8.881-3.606 14.406 0 6.9 2.044 13.272 5.336 16.642z" fill="#00a388"/><path d="m30.543 51.469a30.217 30.217 0 0 1 -3.513-14.819 32.469 32.469 0 0 1 2.245-12.22l1.85.76a30.454 30.454 0 0 0 -2.095 11.46 28.2 28.2 0 0 0 3.247 13.821l.133.232v.267l-1.009.005z" fill="#00a388"/><path d="m23.278 46.886a33.942 33.942 0 0 1 -1.528-10.236 34.772 34.772 0 0 1 .876-7.877l1.948.454a32.734 32.734 0 0 0 -.824 7.423 31.924 31.924 0 0 0 1.432 9.624z" fill="#00a388"/><path d="m34.069 23.875a1 1 0 0 1 -.779-1.626 2.07 2.07 0 0 0 .12-1.987 2.568 2.568 0 0 1 1.132-3.315 17.667 17.667 0 0 0 4.6-3.587 2.48 2.48 0 0 1 2.8-.568c3.951 1.754 6.435 4.431 7.381 7.957a1 1 0 1 1 -1.932.518c-.793-2.954-2.841-5.129-6.261-6.647a.482.482 0 0 0 -.538.113 19.6 19.6 0 0 1 -5.122 3.983.573.573 0 0 0 -.225.761 4.049 4.049 0 0 1 -.4 4.024 1 1 0 0 1 -.776.374z" fill="#00a388"/><path d="m31.58 57.461a2.145 2.145 0 0 1 -1.556-.669 13.244 13.244 0 0 0 -3.468-2.706 2.2 2.2 0 0 1 -.973-2.84 5.238 5.238 0 0 0 .241-2.482.97.97 0 0 1 .176-1.378 1.027 1.027 0 0 1 1.424.18c.863 1.073.346 3.662 0 4.464-.014.034-.08.21.067.287a15.269 15.269 0 0 1 3.99 3.1.14.14 0 0 0 .149.034 8.658 8.658 0 0 0 3.737-2.9 1 1 0 0 1 1.65 1.131 10.61 10.61 0 0 1 -4.576 3.6 2.12 2.12 0 0 1 -.861.179z" fill="#00a388"/><path d="m6.574 42.626a1 1 0 0 1 -.9-1.441 7.742 7.742 0 0 0 0-7.243 1 1 0 0 1 1.8-.882 9.749 9.749 0 0 1 0 9.007 1 1 0 0 1 -.9.559z" fill="#00a388"/><path d="m11.142 40.6a1 1 0 0 1 -.9-1.442 3.4 3.4 0 0 0 0-3.179 1 1 0 1 1 1.794-.883 5.347 5.347 0 0 1 0 4.945 1 1 0 0 1 -.894.559z" fill="#00a388"/></g><g transform="matrix(0.8108108043670654 0 0 0.8108108043670654 44 273)" id="L1_66"><path d="m19.046 73.143a52.635 52.635 0 0 1 -7.518-.572 39.866 39.866 0 0 1 -8-1.9 2.254 2.254 0 0 1 -1.48-2.122 2.228 2.228 0 0 1 .883-1.786 2.251 2.251 0 0 1 1.979-.386 34.956 34.956 0 0 0 7.156 1.1c7.123.48 13.084-.516 17.7-2.965a15.678 15.678 0 0 0 6.034-5.167 9.051 9.051 0 0 0 1.27-6.619 7.8 7.8 0 0 0 -3.725-5.026c-.392-.234-1.029-.549-1.7-.883-.788-.39-1.682-.832-2.5-1.3a50.718 50.718 0 0 1 -4.637-2.876 27.727 27.727 0 0 1 -8.39-8.669 15.179 15.179 0 0 1 -2.044-7.313 15.482 15.482 0 0 1 1.984-7.519 17.4 17.4 0 0 1 4.965-5.467 25.26 25.26 0 0 1 5.723-3.056 45.824 45.824 0 0 1 11.164-2.617 85.171 85.171 0 0 1 10.75-.552 101.134 101.134 0 0 1 10.46.6c3.271.368 13.368 3.46 12.911 7.956a4.3 4.3 0 0 1 -1.8 2.842c-3.141 2.53-9.765 3.941-12.519 3.626-.19-.022-.375-.051-.559-.086l-.112-.023a88.191 88.191 0 0 0 -9-1.242 71.648 71.648 0 0 0 -9.055-.26 34.39 34.39 0 0 0 -8.227 1.2 9.251 9.251 0 0 0 -4.986 2.939 4.519 4.519 0 0 0 -.75 1.922 4.281 4.281 0 0 0 .458 2.16 17.808 17.808 0 0 0 4.934 5.759 42.207 42.207 0 0 0 3.58 2.632q.945.618 1.925 1.206l.253.149c.6.353 1.509.885 2.229 1.418a16.3 16.3 0 0 1 6.791 11.127 16.844 16.844 0 0 1 -3.23 12.182 18.561 18.561 0 0 1 -4.387 4.229 27.428 27.428 0 0 1 -4.93 2.759 34.129 34.129 0 0 1 -13.6 2.6zm-14.739-4.85a.265.265 0 0 0 -.163.056.24.24 0 0 0 -.1.2.251.251 0 0 0 .155.239 37.954 37.954 0 0 0 7.606 1.8c7.87 1.136 14.426.521 20.048-1.881a25.508 25.508 0 0 0 4.578-2.563 16.57 16.57 0 0 0 3.92-3.775 14.85 14.85 0 0 0 2.856-10.746 14.492 14.492 0 0 0 -5.98-9.756c-.652-.481-1.5-.982-2.069-1.313l-.258-.154q-1.019-.611-2-1.254a43.917 43.917 0 0 1 -3.753-2.759 20.054 20.054 0 0 1 -5.486-6.482 6.147 6.147 0 0 1 -.621-3.207 6.449 6.449 0 0 1 1.115-2.865c1.054-1.54 3.21-2.863 6.043-3.687a36.391 36.391 0 0 1 8.71-1.276 73.234 73.234 0 0 1 9.31.266 90.12 90.12 0 0 1 9.224 1.273l.106.022c.125.024.262.045.4.061 2.38.272 8.4-1.077 11.035-3.2a2.489 2.489 0 0 0 1.062-1.485c.239-2.353-7.424-5.349-11.144-5.768a99.235 99.235 0 0 0 -10.255-.592 82.987 82.987 0 0 0 -10.49.537 43.964 43.964 0 0 0 -10.684 2.5 23.332 23.332 0 0 0 -5.278 2.816 15.408 15.408 0 0 0 -4.4 4.831 13.1 13.1 0 0 0 -1.27 3.124 12.94 12.94 0 0 0 -.454 3.4 13.173 13.173 0 0 0 1.78 6.331 25.879 25.879 0 0 0 7.81 8.031 49.254 49.254 0 0 0 4.459 2.764c.776.442 1.642.87 2.4 1.248.743.368 1.383.685 1.848.963a9.78 9.78 0 0 1 4.656 6.308 10.923 10.923 0 0 1 -1.523 8.094c-1.622 2.688-4.589 4.68-6.79 5.876-4.959 2.629-11.273 3.7-18.775 3.2a36.813 36.813 0 0 1 -7.55-1.17.339.339 0 0 0 -.078-.007z" fill="#9f57ad"/><path d="m28.744 71.868a1 1 0 0 1 -.411-1.913c4.344-1.951 3.485-5.4 3.373-5.787a1 1 0 0 1 1.916-.577c.572 1.881.376 6.012-4.469 8.188a.993.993 0 0 1 -.409.089z" fill="#9f57ad"/><path d="m32.831 47.294a1 1 0 0 1 -.921-1.389s.378-1.381-1.842-3.684c-2.75-2.854-1.511-5.725-.473-6.845a1 1 0 0 1 1.471 1.355c-.285.319-1.584 2 .442 4.1 3.186 3.307 2.351 5.6 2.245 5.849a1 1 0 0 1 -.922.614z" fill="#9f57ad"/><path d="m25.375 13.293a1 1 0 0 1 -.775-1.633c.21-.257 5.321-6.295 18.56-7.965 13.417-1.695 18.622 4.891 18.84 5.172a1 1 0 1 1 -1.588 1.215c-.187-.24-4.8-5.944-16.995-4.4-12.38 1.561-17.222 7.2-17.269 7.254a1 1 0 0 1 -.773.357z" fill="#9f57ad"/><path d="m42.188 24.61a21.437 21.437 0 0 1 -11.069-2.6l-.4-.2a1 1 0 0 1 .886-1.793l.4.2c3.7 1.848 8.308 4.149 25.6.29a1 1 0 0 1 .436 1.952 74.528 74.528 0 0 1 -15.853 2.151z" fill="#9f57ad"/><path d="m59.778 22.47a1 1 0 0 1 -.722-.308 8.94 8.94 0 0 1 -2.682-7.843 1 1 0 0 1 1.975.322 7 7 0 0 0 2.151 6.138 1 1 0 0 1 -.723 1.691z" fill="#9f57ad"/><circle cx="62" cy="13" r="1" fill="#9f57ad"/><path d="m62.549 14.98a1.593 1.593 0 1 1 1.592-1.592 1.594 1.594 0 0 1 -1.592 1.592zm0-2.185a.593.593 0 1 0 .592.593.594.594 0 0 0 -.592-.588z" fill="#9f57ad"/></g></defs><g fi:class="KUsePattern"><pattern id="pattern_L1_62" width="350" height="350" patternUnits="userSpaceOnUse"><use xlink:href="#L1_62" x="-350" y="-350"/><use xlink:href="#L1_62" x="0" y="-350"/><use xlink:href="#L1_62" x="350" y="-350"/><use xlink:href="#L1_62" x="-350" y="0"/><use xlink:href="#L1_62" x="0" y="0"/><use xlink:href="#L1_62" x="350" y="0"/><use xlink:href="#L1_62" x="-350" y="350"/><use xlink:href="#L1_62" x="0" y="350"/><use xlink:href="#L1_62" x="350" y="350"/></pattern><rect x="0" y="0" width="100%" height="100%" fill="url(#pattern_L1_62)"/></g><g fi:class="KUsePattern"><pattern id="pattern_L1_63" width="350" height="350" patternUnits="userSpaceOnUse"><use xlink:href="#L1_63" x="-350" y="-350"/><use xlink:href="#L1_63" x="0" y="-350"/><use xlink:href="#L1_63" x="350" y="-350"/><use xlink:href="#L1_63" x="-350" y="0"/><use xlink:href="#L1_63" x="0" y="0"/><use xlink:href="#L1_63" x="350" y="0"/><use xlink:href="#L1_63" x="-350" y="350"/><use xlink:href="#L1_63" x="0" y="350"/><use xlink:href="#L1_63" x="350" y="350"/></pattern><rect x="0" y="0" width="100%" height="100%" fill="url(#pattern_L1_63)"/></g><g fi:class="KUsePattern"><pattern id="pattern_L1_64" width="350" height="350" patternUnits="userSpaceOnUse"><use xlink:href="#L1_64" x="-350" y="-350"/><use xlink:href="#L1_64" x="0" y="-350"/><use xlink:href="#L1_64" x="350" y="-350"/><use xlink:href="#L1_64" x="-350" y="0"/><use xlink:href="#L1_64" x="0" y="0"/><use xlink:href="#L1_64" x="350" y="0"/><use xlink:href="#L1_64" x="-350" y="350"/><use xlink:href="#L1_64" x="0" y="350"/><use xlink:href="#L1_64" x="350" y="350"/></pattern><rect x="0" y="0" width="100%" height="100%" fill="url(#pattern_L1_64)"/></g><g fi:class="KUsePattern"><pattern id="pattern_L1_65" width="350" height="350" patternUnits="userSpaceOnUse"><use xlink:href="#L1_65" x="-350" y="-350"/><use xlink:href="#L1_65" x="0" y="-350"/><use xlink:href="#L1_65" x="350" y="-350"/><use xlink:href="#L1_65" x="-350" y="0"/><use xlink:href="#L1_65" x="0" y="0"/><use xlink:href="#L1_65" x="350" y="0"/><use xlink:href="#L1_65" x="-350" y="350"/><use xlink:href="#L1_65" x="0" y="350"/><use xlink:href="#L1_65" x="350" y="350"/></pattern><rect x="0" y="0" width="100%" height="100%" fill="url(#pattern_L1_65)"/></g><g fi:class="KUsePattern"><pattern id="pattern_L1_66" width="350" height="350" patternUnits="userSpaceOnUse"><use xlink:href="#L1_66" x="-350" y="-350"/><use xlink:href="#L1_66" x="0" y="-350"/><use xlink:href="#L1_66" x="350" y="-350"/><use xlink:href="#L1_66" x="-350" y="0"/><use xlink:href="#L1_66" x="0" y="0"/><use xlink:href="#L1_66" x="350" y="0"/><use xlink:href="#L1_66" x="-350" y="350"/><use xlink:href="#L1_66" x="0" y="350"/><use xlink:href="#L1_66" x="350" y="350"/></pattern><rect x="0" y="0" width="100%" height="100%" fill="url(#pattern_L1_66)"/></g></svg>